<svg id="ce83b3a8-ba0e-4e35-99f1-26a554cd6106" data-name="Layer 2" xmlns="http://www.w3.org/2000/svg" viewBox="0 0 258.21 95.13">
  <title>logo</title>
  <g>
    <path d="M57.64,32.48l.43,0v5.14c-.32,0-.6-.06-.84-.07s-.45,0-.6,0c-2,0-3.37.65-4.06,2A7.6,7.6,0,0,0,52,42.93v9.16H46.94V32.93h4.79v3.34a10.36,10.36,0,0,1,2-2.62,5.45,5.45,0,0,1,3.65-1.18Zm10.86,8a8,8,0,0,0,2-.44,1.5,1.5,0,0,0,1.08-1.42,1.69,1.69,0,0,0-.83-1.63,5.23,5.23,0,0,0-2.43-.45,3.22,3.22,0,0,0-2.55.88,3.63,3.63,0,0,0-.72,1.76H60.22A7.39,7.39,0,0,1,61.63,35c1.33-1.69,3.62-2.53,6.85-2.53a12.14,12.14,0,0,1,5.62,1.25q2.45,1.24,2.45,4.71v8.79c0,.61,0,1.34,0,2.21a2.82,2.82,0,0,0,.29,1.34,1.85,1.85,0,0,0,.74.58v.74H72.17A5.87,5.87,0,0,1,71.86,51a11.19,11.19,0,0,1-.14-1.16,10.46,10.46,0,0,1-2.41,1.91,7.27,7.27,0,0,1-3.68.93,6.35,6.35,0,0,1-4.32-1.48A5.28,5.28,0,0,1,59.61,47a5.46,5.46,0,0,1,2.74-5.12,12.41,12.41,0,0,1,4.43-1.23Zm3.06,2.34a5.46,5.46,0,0,1-1,.48,8,8,0,0,1-1.35.35l-1.14.21a7.22,7.22,0,0,0-2.3.68,2.29,2.29,0,0,0-1.18,2.13,2.22,2.22,0,0,0,.72,1.85A2.75,2.75,0,0,0,67.1,49a5.24,5.24,0,0,0,3-.94,4.06,4.06,0,0,0,1.44-3.47ZM85.71,46a3.41,3.41,0,0,0,.69,1.9c.63.67,1.78,1,3.46,1a5.34,5.34,0,0,0,2.36-.44,1.47,1.47,0,0,0,.17-2.6,28.76,28.76,0,0,0-5.24-1.51,10.85,10.85,0,0,1-4.6-2,4.37,4.37,0,0,1-1.34-3.44,6,6,0,0,1,2.09-4.56,8.41,8.41,0,0,1,5.88-1.91A10.83,10.83,0,0,1,95,33.81a6.14,6.14,0,0,1,2.6,4.95h-5a2.94,2.94,0,0,0-.55-1.53,3.44,3.44,0,0,0-2.82-1,4,4,0,0,0-2.33.51,1.46,1.46,0,0,0-.7,1.2A1.32,1.32,0,0,0,87,39.17a32.08,32.08,0,0,0,5.23,1.38,9.56,9.56,0,0,1,4.49,2.13,4.81,4.81,0,0,1,1.48,3.61A5.82,5.82,0,0,1,96,50.93q-2.13,1.82-6.56,1.81t-6.69-1.91A6.19,6.19,0,0,1,80.63,46Zm27.84-13h5.38L112,52.09h-5.28L99.86,32.93h5.62l4,14.13Zm21.61.38a7.85,7.85,0,0,1,3.31,2.84,9.45,9.45,0,0,1,1.52,4,24.31,24.31,0,0,1,.17,3.8h-14a4.59,4.59,0,0,0,2,4,5,5,0,0,0,2.76.73,3.89,3.89,0,0,0,3.81-2.2h5.12A6.29,6.29,0,0,1,138,49.94a9.33,9.33,0,0,1-7.21,2.8,10.46,10.46,0,0,1-6.75-2.36q-2.92-2.35-2.92-7.67,0-5,2.64-7.64a9.23,9.23,0,0,1,6.85-2.65A11.07,11.07,0,0,1,135.16,33.31Zm-7.5,4.33a5.18,5.18,0,0,0-1.33,3H135a4.18,4.18,0,0,0-1.34-3,4.38,4.38,0,0,0-3-1A4,4,0,0,0,127.66,37.64Zm26.58-5.16.43,0v5.14c-.32,0-.6-.06-.85-.07s-.44,0-.6,0c-2,0-3.36.65-4.06,2a7.75,7.75,0,0,0-.58,3.41v9.16h-5V32.93h4.78v3.34a10.59,10.59,0,0,1,2-2.62A5.49,5.49,0,0,1,154,32.47ZM161.39,46a3.27,3.27,0,0,0,.69,1.9c.62.67,1.77,1,3.46,1a5.37,5.37,0,0,0,2.36-.44,1.4,1.4,0,0,0,.87-1.32,1.43,1.43,0,0,0-.7-1.28,28.7,28.7,0,0,0-5.25-1.51,10.91,10.91,0,0,1-4.6-2,4.36,4.36,0,0,1-1.33-3.44A6,6,0,0,1,159,34.29a8.42,8.42,0,0,1,5.88-1.91,10.87,10.87,0,0,1,5.86,1.43,6.16,6.16,0,0,1,2.59,4.95h-5a3,3,0,0,0-.54-1.53,3.44,3.44,0,0,0-2.82-1,4.07,4.07,0,0,0-2.34.51,1.47,1.47,0,0,0-.69,1.2,1.31,1.31,0,0,0,.74,1.25,31.42,31.42,0,0,0,5.23,1.38,9.66,9.66,0,0,1,4.49,2.13,4.84,4.84,0,0,1,1.47,3.61,5.82,5.82,0,0,1-2.12,4.64c-1.42,1.21-3.6,1.81-6.56,1.81s-5.25-.64-6.69-1.91A6.22,6.22,0,0,1,156.31,46ZM186,40.43a7.76,7.76,0,0,0,2-.44,1.5,1.5,0,0,0,1.08-1.42,1.67,1.67,0,0,0-.83-1.63,5.2,5.2,0,0,0-2.43-.45,3.18,3.18,0,0,0-2.54.88,3.63,3.63,0,0,0-.72,1.76h-4.83A7.25,7.25,0,0,1,179.15,35q2-2.53,6.85-2.53a12.07,12.07,0,0,1,5.61,1.25q2.46,1.24,2.46,4.71v8.79c0,.61,0,1.34,0,2.21a2.92,2.92,0,0,0,.3,1.34,1.85,1.85,0,0,0,.74.58v.74h-5.45a5.19,5.19,0,0,1-.31-1.09c-.06-.34-.11-.73-.15-1.16a10.2,10.2,0,0,1-2.4,1.91,7.27,7.27,0,0,1-3.68.93,6.35,6.35,0,0,1-4.32-1.48A5.29,5.29,0,0,1,177.12,47a5.47,5.47,0,0,1,2.75-5.12,12.41,12.41,0,0,1,4.42-1.23Zm3.07,2.34a5.54,5.54,0,0,1-1,.48,7.64,7.64,0,0,1-1.34.35l-1.14.21a7.22,7.22,0,0,0-2.3.68,2.3,2.3,0,0,0-1.19,2.13,2.2,2.2,0,0,0,.73,1.85,2.73,2.73,0,0,0,1.75.57,5.24,5.24,0,0,0,3-.94,4.06,4.06,0,0,0,1.44-3.47Zm15.38,9.32h-5V26.18h5ZM39.77,29.35l-7.05,7.32h2.09V48.46a3.65,3.65,0,0,0,.85,2.66q1.29,1.35,4.85,1.23l2.37-.09V48.52l-.5,0H41.9c-1,0-1.63-.09-1.83-.29a2.27,2.27,0,0,1-.3-1.47V36.67h3.11V33.1H39.77Zm176,18.6a4.61,4.61,0,0,1-2-4h7.15l6-6.19a8.78,8.78,0,0,0-.85-1.57,7.8,7.8,0,0,0-3.31-2.84,11,11,0,0,0-4.5-.89,9.21,9.21,0,0,0-6.85,2.65q-2.64,2.66-2.64,7.64,0,5.31,2.92,7.67a10.83,10.83,0,0,0,1.87,1.21l3.12-3.23A4.34,4.34,0,0,1,215.78,48Zm-.54-10.31a4,4,0,0,1,3-1.09,4.38,4.38,0,0,1,3,1,4.18,4.18,0,0,1,1.33,3H213.9A5.19,5.19,0,0,1,215.24,37.64ZM39.1,78.79c-.05.44-.07.55-.09,1l-.06.07a3.58,3.58,0,0,1-1.76.42,2.69,2.69,0,0,1-2.94-3c0-2,1.23-3,2.67-3a2.3,2.3,0,0,1,1.81.76,3.53,3.53,0,0,1,.59,2.32l-.08.06H35.43a2.15,2.15,0,0,0,.41,1.38,1.79,1.79,0,0,0,1.42.59,2.89,2.89,0,0,0,1-.16,2.78,2.78,0,0,0,.79-.49Zm-1-2.87a1.23,1.23,0,0,0-1.2-.86,1.49,1.49,0,0,0-1.45,1.52c1.33,0,1.75,0,2.76,0A2.25,2.25,0,0,0,38.08,75.92Zm7.65,2.9c0,.47,0,.53-.08,1l-.08.08a3.17,3.17,0,0,1-1.52.37,2.68,2.68,0,0,1-2.74-2.91,2.79,2.79,0,0,1,2.76-3.07,3.65,3.65,0,0,1,1.51.35l0,.08c0,.39,0,.54-.07.87l-.09,0a2.1,2.1,0,0,0-1.22-.43c-.92,0-1.72.7-1.72,2.11s.85,2,1.71,2a2.23,2.23,0,0,0,1.42-.55Zm7.07-.57a2.7,2.7,0,0,1-.72,1.33,2.56,2.56,0,0,1-1.9.67,2.62,2.62,0,0,1-2-.74,3.19,3.19,0,0,1-.76-2.24A3.11,3.11,0,0,1,48.21,75a2.73,2.73,0,0,1,2-.77,2.57,2.57,0,0,1,2,.79,3.24,3.24,0,0,1,.67,2.12A5.21,5.21,0,0,1,52.8,78.25Zm-1.42-2.52a1.29,1.29,0,0,0-1.18-.63,1.35,1.35,0,0,0-1.21.64,2.89,2.89,0,0,0-.33,1.55c0,.44,0,1.55.88,2a1.47,1.47,0,0,0,.65.15,1.34,1.34,0,0,0,1.25-.74,3.31,3.31,0,0,0,.26-1.46A3.52,3.52,0,0,0,51.38,75.73Zm8.74,4.39c-.53,0-.59,0-1.1,0l-.08-.07c0-.12,0-.25,0-.37,0-.54,0-1.07,0-1.61a9.85,9.85,0,0,0-.07-2,1,1,0,0,0-1-.83,2.39,2.39,0,0,0-1.46.61c0,1.92,0,2.92.08,4.2l-.06.07c-.54,0-.63,0-1.16,0l-.05-.07c0-.62,0-1.21,0-2,0-1.76-.08-2.69-.13-3.43l.07-.08,1.16-.22.08.08V75a3.3,3.3,0,0,1,1.93-.68,1.87,1.87,0,0,1,.92.21,1.57,1.57,0,0,1,.64.71,3.5,3.5,0,0,1,.16,1.35v1.28c0,1.29,0,1.79.08,2.2Zm7.7-1.87a2.44,2.44,0,0,1-2.62,2,2.64,2.64,0,0,1-2-.74,3.22,3.22,0,0,1-.75-2.24A3.14,3.14,0,0,1,63.23,75a2.76,2.76,0,0,1,2.05-.77,2.57,2.57,0,0,1,2,.79,3.24,3.24,0,0,1,.67,2.12A4.58,4.58,0,0,1,67.82,78.25ZM66.4,75.73a1.28,1.28,0,0,0-1.17-.63,1.35,1.35,0,0,0-1.21.64,2.89,2.89,0,0,0-.33,1.55c0,.44,0,1.55.88,2a1.4,1.4,0,0,0,.64.15,1.36,1.36,0,0,0,1.26-.74,3.43,3.43,0,0,0,.25-1.46A3.37,3.37,0,0,0,66.4,75.73Zm3.86-1.18c.56-.09.86-.15,1.18-.22l.07.08,0,.56a3.18,3.18,0,0,1,1.86-.7,1.48,1.48,0,0,1,1.42.79,3.65,3.65,0,0,1,2.11-.79,1.69,1.69,0,0,1,1.18.44c.52.49.53.91.53,1.86v.93c0,1.26,0,1.56.06,2.55l-.06.08c-.53,0-.62,0-1.12,0l-.07-.06c0-.92,0-1.92,0-2.81a6.46,6.46,0,0,0,0-1.19.93.93,0,0,0-1-.85,2.25,2.25,0,0,0-1.41.56c0,.23,0,1,0,1.34v.63c0,1.12,0,1.5.06,2.27l0,.08c-.57,0-.64,0-1.16,0l-.06-.06c0-1,.05-2.26.05-2.95A4.17,4.17,0,0,0,73.79,76a.88.88,0,0,0-.92-.79,2.26,2.26,0,0,0-1.39.56v1.88c0,1.22,0,1.76.08,2.37l-.07.08c-.57,0-.61,0-1.14,0l-.07-.06c0-.44,0-1.07,0-2.2a26.61,26.61,0,0,0-.12-3.27Zm12.18,5.57c-.57,0-.66,0-1.2,0l0-.07c0-.59.06-1.09.06-2.31a22.39,22.39,0,0,0-.11-3.15l.06-.08c.47-.07.63-.1,1.18-.22l.11.07c0,.57-.06,1.17-.06,2.58,0,2,0,2.33.06,3.07Zm0-7.32c-.56,0-.68,0-1.22.09l-.07-.06c0-.15,0-.3,0-.44s0-.38,0-.6l.08-.06,1.22-.11.07.06c0,.45,0,.56,0,1Zm6.83,5.06a19,19,0,0,0,.07,2.2l-.06.06-1.11,0,0-.06v-.4a2.32,2.32,0,0,1-1.54.56,1.77,1.77,0,0,1-1.87-1.83c0-1.48,1.23-2,3.21-2.18l.19,0a1.4,1.4,0,0,0-.1-.69,1,1,0,0,0-.91-.4,4.1,4.1,0,0,0-1.68.41l-.08,0c0-.51,0-.57,0-.8l.06-.07a5.72,5.72,0,0,1,1.91-.36A1.68,1.68,0,0,1,89.2,75.4a7.11,7.11,0,0,1,.08,1.38Zm-1.23-.8c-1.11.17-2.14.32-2.14,1.3a1,1,0,0,0,1,1,1.72,1.72,0,0,0,1.2-.48V77Zm11.86-5.48c.56-.1.67-.12,1.16-.23l.08.07c-.08,1.53-.09,4.26-.09,5.36,0,1.7,0,2.51.09,3.27l-.05.08c-.49,0-.62,0-1.13,0l-.07-.06,0-.41a2.34,2.34,0,0,1-1.52.55,2.55,2.55,0,0,1-2.48-2.83,3,3,0,0,1,1-2.36,3.49,3.49,0,0,1,2.42-.76c.23,0,.34,0,.64,0a23.38,23.38,0,0,0-.1-2.66Zm0,3.62c-.19,0-.32,0-.55,0a2.29,2.29,0,0,0-1.6.52,2.27,2.27,0,0,0-.63,1.72,2.12,2.12,0,0,0,.4,1.36,1.46,1.46,0,0,0,1.14.49,1.85,1.85,0,0,0,1.23-.48C99.93,77.34,99.93,77,99.92,75.2Zm8.38,3.59c0,.44-.06.55-.09,1l-.06.07a3.58,3.58,0,0,1-1.76.42,2.69,2.69,0,0,1-2.94-3c0-2,1.23-3,2.67-3a2.3,2.3,0,0,1,1.81.76,3.53,3.53,0,0,1,.59,2.32l-.08.06h-3.81a2.15,2.15,0,0,0,.41,1.38,1.79,1.79,0,0,0,1.42.59,2.89,2.89,0,0,0,1-.16,2.78,2.78,0,0,0,.79-.49Zm-1-2.87a1.23,1.23,0,0,0-1.2-.86,1.49,1.49,0,0,0-1.45,1.52c1.33,0,1.75,0,2.76,0A2.25,2.25,0,0,0,107.28,75.92Zm4.71,4.2-1.16,0,0-.07c0-.78,0-1.77,0-3.89,0-1.52,0-3.14-.11-4.55l.06-.07c.53-.09.64-.11,1.19-.23l.07.08c-.08,1.44-.08,2.89-.08,4.33,0,2.41,0,3.25.09,4.29Zm3.84,0-1.15,0-.06-.07c0-.78.06-1.77.06-3.89,0-1.52,0-3.14-.11-4.55l.05-.07c.54-.09.65-.11,1.2-.23l.07.08c-.08,1.44-.08,2.89-.08,4.33,0,2.41,0,3.25.09,4.29Zm6.87-2.26a19,19,0,0,0,.07,2.2l-.06.06-1.11,0,0-.06v-.4a2.35,2.35,0,0,1-1.54.56,1.77,1.77,0,0,1-1.87-1.83c0-1.48,1.23-2,3.21-2.18l.19,0a1.4,1.4,0,0,0-.1-.69,1,1,0,0,0-.92-.4,4.05,4.05,0,0,0-1.67.41l-.09,0c0-.51,0-.57,0-.8l.06-.07a5.72,5.72,0,0,1,1.91-.36,1.68,1.68,0,0,1,1.83,1.13,7.11,7.11,0,0,1,.08,1.38Zm-1.23-.8c-1.11.17-2.15.32-2.15,1.3a1,1,0,0,0,1.05,1,1.72,1.72,0,0,0,1.2-.48V77Zm12.31,1.76c-.05.47-.06.53-.09,1l-.08.08a3.17,3.17,0,0,1-1.52.37,2.68,2.68,0,0,1-2.74-2.91,2.79,2.79,0,0,1,2.77-3.07,3.59,3.59,0,0,1,1.5.35l0,.08c0,.39-.06.54-.08.87l-.09,0a2.1,2.1,0,0,0-1.22-.43c-.91,0-1.72.7-1.72,2.11s.85,2,1.71,2a2.21,2.21,0,0,0,1.42-.55Zm7.06-.57a2.46,2.46,0,0,1-2.62,2,2.62,2.62,0,0,1-2-.74,3.19,3.19,0,0,1-.76-2.24,3.11,3.11,0,0,1,.76-2.23,2.76,2.76,0,0,1,2.05-.77,2.6,2.6,0,0,1,2,.79,3.3,3.3,0,0,1,.67,2.12A4.58,4.58,0,0,1,140.84,78.25Zm-1.42-2.52a1.29,1.29,0,0,0-1.18-.63,1.36,1.36,0,0,0-1.21.64,3,3,0,0,0-.33,1.55c0,.44,0,1.55.88,2a1.47,1.47,0,0,0,.65.15,1.36,1.36,0,0,0,1.26-.74,3.43,3.43,0,0,0,.25-1.46A3.52,3.52,0,0,0,139.42,75.73Zm8.74,4.39c-.52,0-.59,0-1.09,0l-.08-.07c0-.12,0-.25,0-.37,0-.54,0-1.07,0-1.61a9,9,0,0,0-.07-2,1,1,0,0,0-1-.83,2.41,2.41,0,0,0-1.46.61c0,1.92,0,2.92.09,4.2l-.07.07c-.54,0-.62,0-1.15,0l-.06-.07c0-.62,0-1.21,0-2,0-1.76-.08-2.69-.14-3.43l.07-.08,1.17-.22.07.08V75a3.34,3.34,0,0,1,1.94-.68,1.85,1.85,0,0,1,.91.21,1.47,1.47,0,0,1,.64.71,3.5,3.5,0,0,1,.16,1.35v1.28c0,1.29,0,1.79.08,2.2Zm7.71-1.87a2.7,2.7,0,0,1-.72,1.33,2.56,2.56,0,0,1-1.9.67,2.62,2.62,0,0,1-2-.74,3.19,3.19,0,0,1-.76-2.24,3.11,3.11,0,0,1,.76-2.23,2.71,2.71,0,0,1,2-.77,2.57,2.57,0,0,1,2,.79,3.24,3.24,0,0,1,.67,2.12A5.21,5.21,0,0,1,155.87,78.25Zm-1.42-2.52a1.3,1.3,0,0,0-1.18-.63,1.35,1.35,0,0,0-1.21.64,2.89,2.89,0,0,0-.33,1.55c0,.44,0,1.55.88,2a1.47,1.47,0,0,0,.65.15,1.35,1.35,0,0,0,1.25-.74,3.28,3.28,0,0,0,.25-1.46A3.48,3.48,0,0,0,154.45,75.73Zm6.19,1.06a1.74,1.74,0,0,1,1.44,1.65,1.63,1.63,0,0,1-.62,1.29,2.68,2.68,0,0,1-1.76.53,4.1,4.1,0,0,1-1.5-.27l-.17-.07-.05-.1c0-.43,0-.48.06-.92l.11,0a2.38,2.38,0,0,0,1.53.52c.87,0,1.19-.48,1.19-.82,0-.51-.47-.67-1.14-.89l-.36-.12a1.72,1.72,0,0,1-1.44-1.6c0-1.13,1-1.69,2.22-1.69a4.14,4.14,0,0,1,1.59.31l0,.07c0,.41,0,.45-.09.87l-.09,0a2.43,2.43,0,0,0-1.42-.45,2,2,0,0,0-.48.06.72.72,0,0,0-.6.66c0,.47.45.62,1.13.83Zm7.72,2c0,.47-.05.53-.09,1l-.07.08a3.17,3.17,0,0,1-1.52.37,2.68,2.68,0,0,1-2.74-2.91,2.78,2.78,0,0,1,2.76-3.07,3.7,3.7,0,0,1,1.51.35l0,.08c0,.39-.05.54-.08.87l-.08,0a2.16,2.16,0,0,0-1.23-.43c-.91,0-1.71.7-1.71,2.11s.84,2,1.7,2a2.21,2.21,0,0,0,1.42-.55Zm6.57,0a8.3,8.3,0,0,0-.09,1l-.07.07a3.54,3.54,0,0,1-1.76.42,2.68,2.68,0,0,1-2.93-3c0-2,1.23-3,2.67-3a2.27,2.27,0,0,1,1.8.76,3.49,3.49,0,0,1,.6,2.32l-.08.06h-3.82a2.17,2.17,0,0,0,.42,1.38,1.78,1.78,0,0,0,1.42.59,2.89,2.89,0,0,0,1-.16,2.94,2.94,0,0,0,.79-.49Zm-1-2.87a1.22,1.22,0,0,0-1.2-.86,1.5,1.5,0,0,0-1.45,1.52c1.33,0,1.75,0,2.76,0A2.25,2.25,0,0,0,173.9,75.92Zm8.4,4.2c-.53,0-.6,0-1.1,0l-.08-.07c0-.12,0-.25,0-.37,0-.54,0-1.07,0-1.61a10.59,10.59,0,0,0-.06-2,1,1,0,0,0-1-.83,2.44,2.44,0,0,0-1.47.61c0,1.92,0,2.92.09,4.2l-.07.07c-.53,0-.62,0-1.15,0l-.06-.07c0-.62,0-1.21,0-2,0-1.76-.08-2.69-.14-3.43l.07-.08,1.17-.22.07.08V75a3.34,3.34,0,0,1,1.94-.68,1.83,1.83,0,0,1,.91.21,1.47,1.47,0,0,1,.64.71,3.46,3.46,0,0,1,.17,1.35v1.28c0,1.29,0,1.79.07,2.2Zm6.31,0h-2.16c-1.28,0-1.42,0-2.1,0l0-.1c.84-1.38,2.17-3.74,2.73-4.79-1.45,0-1.72,0-2.42,0l-.06-.06c.05-.37.06-.46.08-.76l.07-.07c1.84,0,2,0,4,0l0,.09c-1,1.6-2.37,4.22-2.67,4.78.95,0,1.89,0,2.64-.06l.05.06c0,.34-.05.49-.07.82Zm6.44-2.27c0,1.37,0,1.49.06,2.2l-.05.06-1.11,0,0-.06v-.4a2.32,2.32,0,0,1-1.54.56,1.77,1.77,0,0,1-1.87-1.83c0-1.48,1.23-2,3.21-2.18l.19,0a1.4,1.4,0,0,0-.1-.69,1,1,0,0,0-.91-.4,4,4,0,0,0-1.67.41l-.09,0c0-.51,0-.57,0-.8l.07-.07a5.62,5.62,0,0,1,1.9-.36A1.69,1.69,0,0,1,195,75.4a7.11,7.11,0,0,1,.08,1.38Zm-1.24-.8c-1.11.17-2.14.32-2.14,1.3a1,1,0,0,0,1,1,1.7,1.7,0,0,0,1.2-.48V77Z" style="fill: #231f20"/>
    <line id="7d744236-26ec-4a2b-8ebf-a993c9295505" data-name="&lt;Path&gt;" x1="15.6" y1="52.42" x2="51.93" y2="14.87" style="fill: #231f20;stroke: #231f20;stroke-miterlimit: 10;stroke-width: 4px"/>
    <line id="ca07777d-e5a3-4da5-893e-58c1d1674012" data-name="&lt;Path&gt;" x1="205.24" y1="61.59" x2="242.61" y2="24.22" style="fill: #231f20;stroke: #231f20;stroke-miterlimit: 10;stroke-width: 4px"/>
  </g>
</svg>
